<svg xmlns="http://www.w3.org/2000/svg" viewBox="0 0 800 720" aria-hidden="true">
  <defs>
    <linearGradient id="food-glow" x1="50%" y1="0%" x2="50%" y2="100%">
      <stop offset="0%" stop-color="#ff6b1a" stop-opacity="0.2"/>
      <stop offset="100%" stop-color="#ff6b1a" stop-opacity="0"/>
    </linearGradient>
    <linearGradient id="bun-top" x1="0%" y1="0%" x2="0%" y2="100%">
      <stop offset="0%" stop-color="#f8d078"/>
      <stop offset="100%" stop-color="#d4923a"/>
    </linearGradient>
    <linearGradient id="bun-bot" x1="0%" y1="0%" x2="0%" y2="100%">
      <stop offset="0%" stop-color="#e8b85a"/>
      <stop offset="100%" stop-color="#b87a28"/>
    </linearGradient>
    <linearGradient id="patty" x1="0%" y1="0%" x2="0%" y2="100%">
      <stop offset="0%" stop-color="#d94a3d"/>
      <stop offset="100%" stop-color="#8f2e22"/>
    </linearGradient>
    <linearGradient id="cup" x1="0%" y1="0%" x2="100%" y2="100%">
      <stop offset="0%" stop-color="#ff8533"/>
      <stop offset="100%" stop-color="#e04e00"/>
    </linearGradient>
    <filter id="food-shadow" x="-30%" y="-20%" width="160%" height="160%">
      <feDropShadow dx="0" dy="18" stdDeviation="22" flood-color="#000" flood-opacity="0.55"/>
    </filter>
    <filter id="soft-blur">
      <feGaussianBlur stdDeviation="0.4"/>
    </filter>
  </defs>
  <ellipse cx="480" cy="620" rx="320" ry="48" fill="#000" opacity="0.45"/>
  <rect width="800" height="720" fill="url(#food-glow)"/>
  <g filter="url(#food-shadow)">
    <g transform="translate(420 120)">
      <ellipse cx="150" cy="310" rx="210" ry="30" fill="#000" opacity="0.4"/>
      <path d="M35 95 Q150 15 285 70 Q335 185 270 255 Q150 310 55 235 Q5 165 35 95Z" fill="url(#bun-top)"/>
      <path d="M50 100 Q150 50 270 88 Q295 160 235 215 Q150 260 80 210 Q40 155 50 100Z" fill="#5c3218"/>
      <path d="M62 108 Q150 82 245 100 Q265 152 210 198 Q140 228 95 188 Q58 148 62 108Z" fill="url(#patty)"/>
      <path d="M78 118 Q150 102 222 115 Q238 152 192 182 Q132 202 108 172 Q82 145 78 118Z" fill="#f0c830" opacity="0.92"/>
      <rect x="98" y="86" width="92" height="14" rx="4" fill="#3d9f52"/>
      <rect x="188" y="94" width="48" height="12" rx="3" fill="#c63d2f"/>
      <path d="M40 88 Q150 28 290 58 Q312 115 255 158 Q150 198 50 158 Q18 125 40 88Z" fill="#f4c56a" opacity="0.95"/>
      <path d="M42 230 Q150 275 268 230 Q285 200 250 175 Q150 155 60 175 Q30 200 42 230Z" fill="url(#bun-bot)"/>
    </g>
    <g transform="translate(40 300)">
      <ellipse cx="95" cy="210" rx="130" ry="18" fill="#000" opacity="0.38"/>
      <g fill="url(#bun-top)" stroke="#c4923a" stroke-width="1.5">
        <rect x="18" y="35" width="16" height="155" rx="5"/>
        <rect x="46" y="12" width="16" height="178" rx="5"/>
        <rect x="74" y="48" width="16" height="142" rx="5"/>
        <rect x="102" y="22" width="16" height="168" rx="5"/>
        <rect x="130" y="58" width="16" height="132" rx="5"/>
      </g>
      <rect x="10" y="188" width="148" height="26" rx="7" fill="#b83428"/>
      <rect x="10" y="188" width="148" height="8" rx="4" fill="#d94a3d" opacity="0.8"/>
    </g>
    <g transform="translate(560 260)">
      <ellipse cx="72" cy="230" rx="95" ry="14" fill="#000" opacity="0.38"/>
      <path d="M28 55 L116 55 L132 215 Q72 232 12 215 Z" fill="url(#cup)"/>
      <path d="M32 50 L112 50 L126 72 L18 72 Z" fill="#fff" opacity="0.22"/>
      <rect x="40" y="98" width="64" height="52" rx="5" fill="#fff" opacity="0.1"/>
      <ellipse cx="72" cy="54" rx="44" ry="11" fill="#fff" opacity="0.18"/>
      <path d="M48 72 Q72 82 96 72" stroke="#fff" stroke-width="2" fill="none" opacity="0.25"/>
    </g>
  </g>
  <g opacity="0.12" filter="url(#soft-blur)">
    <circle cx="650" cy="180" r="80" fill="#ff6b1a"/>
  </g>
</svg>
