<svg xmlns="http://www.w3.org/2000/svg" viewBox="0 0 1600 900" preserveAspectRatio="xMidYMid slice" aria-hidden="true">
  <defs>
    <linearGradient id="sky" x1="0%" y1="0%" x2="0%" y2="100%">
      <stop offset="0%" stop-color="#1a2838"/>
      <stop offset="45%" stop-color="#0c121c"/>
      <stop offset="100%" stop-color="#060a10"/>
    </linearGradient>
    <radialGradient id="glow" cx="85%" cy="40%" r="50%">
      <stop offset="0%" stop-color="#ff6b1a" stop-opacity="0.22"/>
      <stop offset="100%" stop-color="#ff6b1a" stop-opacity="0"/>
    </radialGradient>
    <linearGradient id="field" x1="0%" y1="0%" x2="0%" y2="100%">
      <stop offset="0%" stop-color="#0d1520"/>
      <stop offset="100%" stop-color="#060a10"/>
    </linearGradient>
  </defs>
  <rect width="1600" height="900" fill="url(#sky)"/>
  <rect width="1600" height="900" fill="url(#glow)"/>
  <g fill="#ffffff" opacity="0.04">
    <circle cx="200" cy="120" r="2"/><circle cx="450" cy="80" r="1.5"/><circle cx="800" cy="60" r="2"/>
    <circle cx="1100" cy="100" r="1.5"/><circle cx="1400" cy="140" r="2"/><circle cx="320" cy="200" r="1"/>
  </g>
  <g stroke="#ffffff" stroke-opacity="0.06" fill="none" stroke-width="1">
    <path d="M0 380 Q400 340 800 360 T1600 380"/>
    <path d="M0 420 Q500 390 1000 410 T1600 430"/>
  </g>
  <g fill="#ffffff" opacity="0.07">
    <rect x="120" y="280" width="8" height="120" rx="2"/>
    <rect x="280" y="240" width="8" height="160" rx="2"/>
    <rect x="440" y="260" width="8" height="140" rx="2"/>
    <rect x="600" y="220" width="8" height="180" rx="2"/>
    <rect x="760" y="250" width="8" height="150" rx="2"/>
    <rect x="920" y="230" width="8" height="170" rx="2"/>
    <rect x="1080" y="270" width="8" height="130" rx="2"/>
    <rect x="1240" y="210" width="8" height="190" rx="2"/>
    <rect x="1400" y="250" width="8" height="150" rx="2"/>
  </g>
  <path d="M0 520 Q400 480 800 500 T1600 520 L1600 900 L0 900 Z" fill="url(#field)"/>
  <ellipse cx="800" cy="900" rx="900" ry="180" fill="#05080d" opacity="0.85"/>
</svg>
