<svg xmlns="http://www.w3.org/2000/svg" viewBox="0 0 1600 900" preserveAspectRatio="xMidYMid slice" aria-hidden="true">
  <defs>
    <linearGradient id="sky" x1="0%" y1="0%" x2="0%" y2="100%">
      <stop offset="0%" stop-color="#1e2d42"/>
      <stop offset="35%" stop-color="#121a28"/>
      <stop offset="100%" stop-color="#060a10"/>
    </linearGradient>
    <radialGradient id="spot-main" cx="72%" cy="28%" r="45%">
      <stop offset="0%" stop-color="#ff6b1a" stop-opacity="0.28"/>
      <stop offset="55%" stop-color="#ff6b1a" stop-opacity="0.06"/>
      <stop offset="100%" stop-color="#ff6b1a" stop-opacity="0"/>
    </radialGradient>
    <radialGradient id="spot-left" cx="18%" cy="22%" r="35%">
      <stop offset="0%" stop-color="#ffffff" stop-opacity="0.08"/>
      <stop offset="100%" stop-color="#ffffff" stop-opacity="0"/>
    </radialGradient>
    <linearGradient id="field" x1="0%" y1="0%" x2="0%" y2="100%">
      <stop offset="0%" stop-color="#0f1a12"/>
      <stop offset="100%" stop-color="#060a10"/>
    </linearGradient>
    <linearGradient id="turf" x1="0%" y1="0%" x2="100%" y2="0%">
      <stop offset="0%" stop-color="#14301f"/>
      <stop offset="50%" stop-color="#1a4528"/>
      <stop offset="100%" stop-color="#12301c"/>
    </linearGradient>
    <filter id="blur-far" x="-20%" y="-20%" width="140%" height="140%">
      <feGaussianBlur stdDeviation="1.2"/>
    </filter>
  </defs>
  <rect width="1600" height="900" fill="url(#sky)"/>
  <rect width="1600" height="900" fill="url(#spot-main)"/>
  <rect width="1600" height="900" fill="url(#spot-left)"/>
  <g opacity="0.55" filter="url(#blur-far)">
    <ellipse cx="280" cy="120" rx="180" ry="40" fill="#ffffff" opacity="0.12"/>
    <ellipse cx="720" cy="90" rx="240" ry="50" fill="#ffffff" opacity="0.1"/>
    <ellipse cx="1180" cy="110" rx="200" ry="45" fill="#ffffff" opacity="0.11"/>
  </g>
  <g fill="#ffffff" opacity="0.05">
    <circle cx="120" cy="80" r="1.5"/><circle cx="340" cy="60" r="2"/><circle cx="560" cy="95" r="1"/>
    <circle cx="890" cy="70" r="1.5"/><circle cx="1120" cy="55" r="2"/><circle cx="1380" cy="88" r="1.5"/>
  </g>
  <g opacity="0.14">
    <rect x="60" y="250" width="10" height="200" rx="2" fill="#fff"/>
    <rect x="140" y="210" width="10" height="240" rx="2" fill="#fff"/>
    <rect x="220" y="235" width="10" height="215" rx="2" fill="#fff"/>
    <rect x="300" y="195" width="10" height="255" rx="2" fill="#fff"/>
    <rect x="380" y="220" width="10" height="230" rx="2" fill="#fff"/>
    <rect x="460" y="180" width="10" height="270" rx="2" fill="#fff"/>
    <rect x="540" y="205" width="10" height="245" rx="2" fill="#fff"/>
    <rect x="620" y="170" width="10" height="280" rx="2" fill="#fff"/>
    <rect x="700" y="200" width="10" height="250" rx="2" fill="#fff"/>
    <rect x="780" y="165" width="10" height="285" rx="2" fill="#fff"/>
    <rect x="860" y="190" width="10" height="260" rx="2" fill="#fff"/>
    <rect x="940" y="155" width="10" height="295" rx="2" fill="#fff"/>
    <rect x="1020" y="185" width="10" height="265" rx="2" fill="#fff"/>
    <rect x="1100" y="150" width="10" height="300" rx="2" fill="#fff"/>
    <rect x="1180" y="175" width="10" height="275" rx="2" fill="#fff"/>
    <rect x="1260" y="145" width="10" height="305" rx="2" fill="#fff"/>
    <rect x="1340" y="170" width="10" height="280" rx="2" fill="#fff"/>
    <rect x="1420" y="140" width="10" height="310" rx="2" fill="#fff"/>
    <rect x="1500" y="165" width="10" height="285" rx="2" fill="#fff"/>
  </g>
  <path d="M0 430 Q400 390 800 410 T1600 430 L1600 900 L0 900 Z" fill="url(#field)"/>
  <path d="M0 520 Q500 480 1000 500 T1600 520 L1600 900 L0 900 Z" fill="url(#turf)" opacity="0.85"/>
  <ellipse cx="800" cy="900" rx="920" ry="200" fill="#05080d" opacity="0.9"/>
  <g stroke="#ffffff" stroke-opacity="0.06" fill="none" stroke-width="1">
    <path d="M0 500 Q400 470 800 485 T1600 500"/>
    <path d="M0 540 Q500 510 1000 525 T1600 540"/>
    <path d="M0 580 Q600 550 1200 565 T1600 580"/>
  </g>
  <g opacity="0.35">
    <ellipse cx="200" cy="520" rx="120" ry="18" fill="#ff6b1a"/>
    <ellipse cx="600" cy="510" rx="140" ry="20" fill="#ff6b1a"/>
    <ellipse cx="1000" cy="515" rx="130" ry="19" fill="#ff6b1a"/>
    <ellipse cx="1400" cy="525" rx="110" ry="17" fill="#ff6b1a"/>
  </g>
</svg>
