<svg xmlns="http://www.w3.org/2000/svg" viewBox="0 0 720 640" role="img" aria-label="">
  <defs>
    <linearGradient id="bun" x1="0%" y1="0%" x2="0%" y2="100%">
      <stop offset="0%" stop-color="#f4c56a"/>
      <stop offset="100%" stop-color="#d4923a"/>
    </linearGradient>
    <linearGradient id="cup" x1="0%" y1="0%" x2="100%" y2="100%">
      <stop offset="0%" stop-color="#ff6b1a"/>
      <stop offset="100%" stop-color="#e04e00"/>
    </linearGradient>
    <filter id="soft" x="-20%" y="-20%" width="140%" height="140%">
      <feDropShadow dx="0" dy="12" stdDeviation="16" flood-color="#000" flood-opacity="0.45"/>
    </filter>
  </defs>
  <g filter="url(#soft)">
    <g transform="translate(300 80)">
      <ellipse cx="150" cy="300" rx="200" ry="28" fill="#000" opacity="0.4"/>
      <path d="M50 100 Q150 20 270 70 Q320 180 260 250 Q150 300 60 230 Q10 170 50 100Z" fill="url(#bun)"/>
      <path d="M65 105 Q150 55 255 85 Q280 155 230 205 Q150 245 90 200 Q50 160 65 105Z" fill="#6d3b1f"/>
      <path d="M80 115 Q150 90 235 105 Q255 155 205 195 Q140 215 100 185 Q70 150 80 115Z" fill="#c63d2f"/>
      <path d="M95 125 Q150 110 215 122 Q228 158 188 178 Q138 192 108 172 Q85 152 95 125Z" fill="#f4d03f" opacity="0.92"/>
      <rect x="105" y="92" width="88" height="16" rx="5" fill="#3d8f4a"/>
      <rect x="185" y="100" width="52" height="13" rx="4" fill="#c63d2f"/>
      <path d="M45 95 Q150 35 275 65 Q295 120 250 160 Q150 195 55 165 Q25 130 45 95Z" fill="#f4c56a" opacity="0.95"/>
    </g>
    <g transform="translate(40 260)">
      <ellipse cx="95" cy="195" rx="125" ry="16" fill="#000" opacity="0.35"/>
      <g fill="#f4c56a" stroke="#d4923a" stroke-width="2">
        <rect x="20" y="40" width="18" height="140" rx="6"/>
        <rect x="48" y="20" width="18" height="160" rx="6"/>
        <rect x="76" y="55" width="18" height="125" rx="6"/>
        <rect x="104" y="30" width="18" height="150" rx="6"/>
        <rect x="132" y="65" width="18" height="115" rx="6"/>
      </g>
      <rect x="12" y="175" width="150" height="28" rx="8" fill="#c63d2f" opacity="0.9"/>
    </g>
    <g transform="translate(520 200)">
      <ellipse cx="70" cy="220" rx="90" ry="14" fill="#000" opacity="0.35"/>
      <path d="M30 60 L110 60 L125 200 Q70 215 15 200 Z" fill="url(#cup)"/>
      <path d="M35 55 L105 55 L118 75 L22 75 Z" fill="#fff" opacity="0.25"/>
      <rect x="38" y="95" width="64" height="48" rx="4" fill="#fff" opacity="0.12"/>
      <ellipse cx="70" cy="58" rx="42" ry="10" fill="#fff" opacity="0.2"/>
    </g>
  </g>
</svg>
